<?xml version="1.0" encoding="utf-8" standalone="no"?>
<!DOCTYPE svg PUBLIC "-//W3C//DTD SVG 1.1//EN" "http://www.w3.org/Graphics/SVG/1.1/DTD/svg11.dtd">
<svg version="1.1" width="2384pt" height="3370pt" viewBox="0 0 2383.92 3370.32" xmlns="http://www.w3.org/2000/svg">
  <defs />
  <g id="Default">
    <path d="M1424.7517,3350.1157 C1455.1271,3225.396 1363.4978,2963.3274 1428.3536,2883.3557 C1460.1857,2844.1045 1529.7142,2848.7197 1596.9873,2833.588 C1786.339,2790.997 1957.8215,2591.9626 1940.0748,2439.3665 C1933.7903,2385.3284 1903.7756,2337.1138 1853.8126,2328.6348 C1749.6566,2310.9592 1558.8093,2465.9678 1396.1641,2476.9006 C1284.8243,2484.3845 1186.7004,2424.352 1218.3184,2359.2598 C1255.4923,2282.7295 1472.0116,2199.205 1626.8094,2222.6697 C1752.8396,2241.7737 1837.9575,2331.7961 1883.5251,2281.705 C1926.9321,2233.9893 1934.4507,2059.1326 1988.3704,2005.0153 C2057.7068,1935.4247 2203.771,2065.4858 2282.2534,1985.4432 C2328.3062,1938.4752 2351.0889,1819.1635 2334.917,1725.0717 C2306.197,1557.9712 2154.617,1470.4127 2020.4615,1403.1893 C1835.4644,1310.49 1683.6008,1256.4594 1705.5815,1105.2521 C1720.736,1001.00397 1818.5228,850.5655 1868.9758,896.139 C1920.3212,942.51825 1922.6438,1191.9027 1873.4769,1243.1528 C1798.1382,1321.6833 1601.9044,935.0041 1391.023,835.15405 C1307.2853,795.5052 1221.2382,801.0823 1162.7417,874.7225 C1105.8965,946.2838 1075.0685,1082.1198 1118.1152,1165.8854 C1190.6226,1306.9795 1472.7249,1300.3418 1598.3483,1164.9952 C1668.9666,1088.9115 1690.1368,972.1556 1731.6215,909.45825 C1807.0316,795.4879 1949.5667,860.14636 1968.9652,775.2632 C1980.0908,726.5795 1950.7119,628.70526 1919.1313,547.1189 C1875.1108,433.39468 1826.8131,351.31772 1752.9078,279.56805 C1634.7596,164.8659 1451.1676,76.5568 1279.9352,38.98081 C1203.8013,22.273651 1130.1107,15.595911 1054.9318,16.827625 C917.42053,19.080576 774.9296,47.79597 649.6967,110.38421 C378.52512,245.90889 188.27066,540.2528 103.36309,834.3453 C50.896675,1016.07196 38.65483,1197.7026 45.58999,1351.0488 C53.076035,1516.5759 82.906685,1649.1465 127.224594,1859.3615 C215.31306,2277.1956 360.63712,3001.7834 325.5424,3353.6353" stroke="#000000" stroke-width="0.72" stroke-linecap="round" stroke-linejoin="round" fill="none" />
  </g>
</svg>