<svg width="426" height="630" viewBox="0 0 426 630" fill="none" xmlns="http://www.w3.org/2000/svg">
<path d="M221.799 443.961C226.62 450.121 235.602 454.606 243.12 451.748C250.831 448.816 257.001 438.161 264.259 437.113C271.734 436.033 280.362 445.144 287.553 445.647C291.065 445.893 294.234 444.087 296.685 438.612" stroke="black" stroke-linecap="round" stroke-linejoin="round"/>
<path d="M259.49 628.018C239.493 530.991 279.249 533.63 298.123 522.598C315.612 512.375 315.169 490.413 323.127 461.998C325.945 451.935 329.816 441.063 326.846 438.254C320.653 432.397 284.726 461.577 254.108 463.635C233.149 465.044 214.677 453.743 220.629 441.489C227.627 427.083 268.387 411.359 297.527 415.776C321.252 419.373 337.276 436.319 345.854 426.89C354.025 417.907 355.441 384.991 369.401 374.948C387.352 362.035 426.047 386.946 425.494 373.28C425.169 365.26 411.331 343.958 400.463 326.559C381.162 295.659 371.232 277.069 356.761 263.193C336.807 244.059 308.218 233.887 313.349 206.046C316.886 186.851 336.451 159.257 345.128 167.688C353.957 176.268 351.51 222.159 344.477 232.542C333.701 248.453 312.16 180.996 266.627 159.805C248.546 151.391 226.683 150.271 214.713 164.062C203.081 177.464 200.791 204.947 209.761 221.187C224.87 248.542 271.923 243.999 293.394 217.335C305.463 202.347 309.449 180.367 317.258 168.565C331.454 147.11 358.286 159.282 359.146 143.059C359.639 133.755 351.589 115.111 343.362 99.4077C331.893 77.5187 320.08 61.3438 306.755 47.7762C285.452 26.0865 260.286 11.0605 230.943 4.47864C217.896 1.55221 204.024 0.295127 189.871 0.526997C163.985 0.951114 137.161 6.35678 113.229 15.6575C61.4066 35.7967 23.1416 74.1987 7.60029 132.634C-2.00305 168.743 -2.92977 212.501 11.4704 256.176C27.0145 303.321 60.4171 350.371 82.3295 394.772C125.884 483.027 124.042 560.822 96.8315 629.127" stroke="black" stroke-linecap="round" stroke-linejoin="round"/>
<path d="M79.0121 263.576C68.7192 261.109 62.9288 274.137 65.0395 281.47C66.3042 285.864 70.4052 288.213 74.5081 289.617C82.9927 292.521 91.4849 291.383 97.2806 284.259C106.951 272.372 109.114 243.819 95.1998 227.113C89.4164 220.169 80.8553 215.272 72.8177 213.435C66.3741 211.964 60.2669 212.459 54.3831 214.331C48.6121 216.168 43.056 219.329 38.8126 223.821C33.7091 229.223 30.5043 236.551 29.2381 243.895C27.555 253.657 29.2976 263.448 32.2208 272.218C35.9308 283.349 41.5423 292.835 48.9973 303.323C59.5266 318.137 73.7334 334.952 86.0221 348.74C96.6086 360.619 105.772 370.251 109.805 366.908C112.348 364.799 112.852 357.528 111.596 345.035" stroke="black" stroke-linecap="round" stroke-linejoin="round"/>
<path d="M387.07 362.603C387.191 353.922 387.1 345.243 382.357 340.287C378.606 336.366 371.942 334.776 367.615 336.075C356.68 339.358 360.662 361.091 380.635 354.119" stroke="black" stroke-linecap="round" stroke-linejoin="round"/>
<path d="M345.336 403.183C343.425 380.835 315.834 369.927 293.681 373.563C273.348 376.9 257.598 392.49 237.572 400.058C228.135 403.625 217.749 405.41 211.72 399.431C206.964 394.716 204.919 385.171 207.677 377.867C211.307 368.254 223.258 362.524 229.545 367.06C237.898 373.085 236.258 397.225 221.058 388.187" stroke="black" stroke-linecap="round" stroke-linejoin="round"/>
</svg>
