<svg width="717" height="704" viewBox="0 0 717 704" fill="none" xmlns="http://www.w3.org/2000/svg">
<path d="M65.6891 472.016L355.16 660.341L456.937 363.722" stroke="black" stroke-width="0.959909" stroke-linecap="round" stroke-linejoin="round" stroke-dasharray="20 20"/>
<path d="M65.6891 472.016L456.937 363.722L192.612 158.204L65.6891 472.016Z" stroke="black" stroke-width="0.959909" stroke-linecap="round" stroke-linejoin="round" stroke-dasharray="20 20"/>
<path d="M644.631 589.462L355.16 660.341" stroke="black" stroke-width="0.959909" stroke-linecap="round" stroke-linejoin="round" stroke-dasharray="20 20"/>
<path d="M16.3292 447.485L65.6891 472.016" stroke="black" stroke-width="0.959909" stroke-linecap="round" stroke-linejoin="round" stroke-dasharray="20 20"/>
<path d="M456.937 363.722V9.6438L192.612 158.204" stroke="black" stroke-width="0.959909" stroke-linecap="round" stroke-linejoin="round" stroke-dasharray="20 20"/>
<path d="M693.991 259.914L456.937 363.722" stroke="black" stroke-width="0.959909" stroke-linecap="round" stroke-linejoin="round" stroke-dasharray="20 20"/>
<path d="M65.6891 472.016V117.938L192.612 158.204" stroke="black" stroke-width="0.959909" stroke-linecap="round" stroke-linejoin="round" stroke-dasharray="20 20"/>
<path d="M456.937 363.722L644.631 589.461" stroke="black" stroke-width="0.959909" stroke-linecap="round" stroke-linejoin="round" stroke-dasharray="20 20"/>
<path d="M355.16 660.341L253.383 697.756L65.6891 472.016" stroke="black" stroke-width="0.959909" stroke-linecap="round" stroke-linejoin="round" stroke-dasharray="20 20"/>
<path d="M456.937 9.6438L644.631 235.383" stroke="black" stroke-width="0.959909" stroke-linecap="round" stroke-linejoin="round"/>
<path d="M456.937 9.6438L355.16 47.0587" stroke="black" stroke-width="0.959909" stroke-linecap="round" stroke-linejoin="round"/>
<path d="M456.937 9.6438L65.6891 117.938L16.3292 447.485L253.383 697.756L644.631 589.461L693.991 259.914L456.937 9.6438Z" stroke="black" stroke-width="0.959909" stroke-linecap="round" stroke-linejoin="round"/>
<path d="M644.631 235.383L355.16 47.0588" stroke="black" stroke-width="0.959909" stroke-linecap="round" stroke-linejoin="round"/>
<path d="M644.631 235.383L253.383 343.677" stroke="black" stroke-width="0.959909" stroke-linecap="round" stroke-linejoin="round"/>
<path d="M644.631 235.383V589.462" stroke="black" stroke-width="0.959909" stroke-linecap="round" stroke-linejoin="round"/>
<path d="M517.707 549.196L644.631 235.383L693.991 259.914" stroke="black" stroke-width="0.959909" stroke-linecap="round" stroke-linejoin="round"/>
<path d="M65.6891 117.938L355.16 47.0588L253.383 343.677" stroke="black" stroke-width="0.959909" stroke-linecap="round" stroke-linejoin="round"/>
<path d="M65.6891 117.938L253.383 343.677" stroke="black" stroke-width="0.959909" stroke-linecap="round" stroke-linejoin="round"/>
<path d="M253.383 343.677V697.756" stroke="black" stroke-width="0.959909" stroke-linecap="round" stroke-linejoin="round"/>
<path d="M517.708 549.196L253.383 343.677L16.3292 447.485" stroke="black" stroke-width="0.959909" stroke-linecap="round" stroke-linejoin="round"/>
<path d="M644.631 589.461L517.707 549.196L253.383 697.756" stroke="black" stroke-width="0.959909" stroke-linecap="round" stroke-linejoin="round"/>
</svg>
